<mxfile host="app.diagrams.net" modified="2021-10-12T18:52:15.186Z" agent="5.0 (Windows NT 10.0; Win64; x64) AppleWebKit/537.36 (KHTML, like Gecko) Chrome/94.0.4606.71 Safari/537.36" etag="0uv-BmpysrqOfYYKkE-d" version="14.9.8" type="github">
  <diagram id="4McjJYbZN8BIUwtswG4Y" name="Page-1">
    <mxGraphModel dx="1038" dy="583" grid="1" gridSize="10" guides="1" tooltips="1" connect="1" arrows="1" fold="1" page="1" pageScale="1" pageWidth="827" pageHeight="1169" math="0" shadow="0">
      <root>
        <mxCell id="0" />
        <mxCell id="1" parent="0" />
        <mxCell id="UF2nYOWphOUwnpRi0saQ-10" value="Teacher" style="shape=umlActor;verticalLabelPosition=bottom;verticalAlign=top;html=1;outlineConnect=0;" vertex="1" parent="1">
          <mxGeometry x="30" y="210" width="30" height="60" as="geometry" />
        </mxCell>
        <mxCell id="UF2nYOWphOUwnpRi0saQ-15" value="Mark attendance" style="ellipse;whiteSpace=wrap;html=1;" vertex="1" parent="1">
          <mxGeometry x="90" y="215" width="146" height="50" as="geometry" />
        </mxCell>
        <mxCell id="UF2nYOWphOUwnpRi0saQ-16" value="Login to the System" style="ellipse;whiteSpace=wrap;html=1;" vertex="1" parent="1">
          <mxGeometry x="160" y="110" width="180" height="50" as="geometry" />
        </mxCell>
        <mxCell id="UF2nYOWphOUwnpRi0saQ-17" value="&amp;lt;&amp;lt;include&amp;gt;&amp;gt;" style="html=1;verticalAlign=bottom;labelBackgroundColor=none;endArrow=open;endFill=0;dashed=1;exitX=0.5;exitY=0;exitDx=0;exitDy=0;" edge="1" parent="1" source="UF2nYOWphOUwnpRi0saQ-15" target="UF2nYOWphOUwnpRi0saQ-16">
          <mxGeometry width="160" relative="1" as="geometry">
            <mxPoint x="110" y="100" as="sourcePoint" />
            <mxPoint x="250" y="160" as="targetPoint" />
          </mxGeometry>
        </mxCell>
        <mxCell id="UF2nYOWphOUwnpRi0saQ-18" value="&amp;lt;&amp;lt;include&amp;gt;&amp;gt;" style="html=1;verticalAlign=bottom;labelBackgroundColor=none;endArrow=open;endFill=0;dashed=1;entryX=0;entryY=0.5;entryDx=0;entryDy=0;" edge="1" parent="1" source="UF2nYOWphOUwnpRi0saQ-15" target="UF2nYOWphOUwnpRi0saQ-19">
          <mxGeometry width="160" relative="1" as="geometry">
            <mxPoint x="280" y="240" as="sourcePoint" />
            <mxPoint x="330" y="250" as="targetPoint" />
          </mxGeometry>
        </mxCell>
        <mxCell id="UF2nYOWphOUwnpRi0saQ-19" value="Get students&#39; attendance report" style="ellipse;whiteSpace=wrap;html=1;" vertex="1" parent="1">
          <mxGeometry x="290" y="210" width="200" height="50" as="geometry" />
        </mxCell>
        <mxCell id="UF2nYOWphOUwnpRi0saQ-20" value="" style="ellipse;whiteSpace=wrap;html=1;" vertex="1" parent="1">
          <mxGeometry x="144" y="310" width="146" height="50" as="geometry" />
        </mxCell>
      </root>
    </mxGraphModel>
  </diagram>
</mxfile>
